<svg id="SvgjsSvg1001" width="288" height="288" xmlns="http://www.w3.org/2000/svg" version="1.1" xmlns:xlink="http://www.w3.org/1999/xlink" xmlns:svgjs="http://svgjs.com/svgjs"><defs id="SvgjsDefs1002"></defs><g id="SvgjsG1008" transform="matrix(1,0,0,1,0,0)"><svg xmlns="http://www.w3.org/2000/svg" width="288" height="288" enable-background="new 0 0 300 190" viewBox="0 0 300 190"><path d="M71.536,46.22c5.369,0,9.723-4.354,9.723-9.722s-4.354-9.721-9.723-9.721s-9.722,4.354-9.722,9.721      S66.167,46.22,71.536,46.22" fill="#6666ff" class="color000 svgShape"></path><path d="M55.402 58.211c0 0 0-13.736 0-20.774 0-7.057-6.979-13.476-12.378-11.861-5.367 1.634-27.915 8.521-28.84 8.934C13.262 34.939 1.48 39.482 1.48 52.375l.178 83.776c0 0 .508 8.427 9.276 8.258 0 0 2.565 0 6.68-2.233 0 0 10.141-5.555 10.827-5.855.655-.281 6.174-2.046 6.352 5.498v47.05l16.643-5.331c0 0 0-40.367 0-41.719 0-2.833 2.059-16.854 9.275-22.651.447-.376 3.938-2.627 7.038 1.539 3.131 4.167 5.846 4.804 5.846 4.804s3.369 1.482 6.354-3.603c.178-.356 5.428-9.046 5.666-9.44s1.014-1.558 3.25-1.369c0 0 5.519-.357 4.652 7.375 0 0 25.53-7.751 27.647-8.934.327-.131 10.08-4.034 15.956-13.043 0 0 1.759-2.59 3.965-2.402.388 0 5.817.338 4.267 7.545 0 0 24.753-7.563 26.125-8.238 2.923-1.201 10.647-4.411 10.47-13.382.089-2.665-.627-7.318-4.475-10.659-.208-.207-17.03-12.594-17.179-12.705-1.462-1.239-2.207-4.055.178-7.038 0 0 1.879-2.74 4.652-2.571 0 0 2.089-.094 5.311 4.129.416.413 2.802 3.604 4.473 3.941 0 0 1.371.45 3.072-1.201 4.176-3.622 6.353-3.772 6.353-3.772s6.024-1.726 6.024 5.142c0 0 0 13.082 0 14.432 0 3.154 4.145 12.818 13.57 12.35 0 0 3.25-.338 6.353-1.201l10.11-3.246c0 0 12.734-3.828 17.178-12.029 0 0 2.117-4.111 5.159-4.111 0 0 5.309-.693 4.802 7.377l14.435-4.805V29.197c0 0-.416-4.128 4.444-4.128 4.802 0 4.652 3.771 4.652 3.771s0 70.621 0 72.122c0 2.027 2.118 8.332 9.096 8.238 0 0 19.565-.168 19.565-16.834 0-1.238 0-6.344 0-6.344l-4.981 1.709v6.023c0 0 .33 4.055-4.294 4.279-.418.094-4.951-.075-4.802-4.467V5.326c0 0-.357-4.129-4.475-4.129 0 0-3.757-.338-6.68 4.823-2.923 5.142-3.966 9.083-7.902 9.083 0 0-4.683.563-4.624-3.604V7.033l-14.792 4.823c0 0 0 16.365 0 16.984 0 4.223-3.161 25.167-8.738 25.241-.389.057-5.637.789-5.847-4.466 0 0 0-17.96 0-19.743.149-2.664-1.937-10.623-8.589-9.777l-5.993 1.201c0 0 0 41.418 0 42.752 0 1.313-.479 7.619-7.577 7.899-.626.095-7.545-.187-7.545-6.868V37.268c0 0-.327-4.992 4.652-5.33l.149-7.207c0 0-15.092 3.435-22.129 16.141-.834.9-2.594 1.707-3.788 1.707-.715 0-4.114-.207-4.294-3.604 0-.807 0-4.635 0-4.635l-24.902 8.238c0 0-9.783 3.098-9.783 13.063 0 0 0 6.868 4.295 10.115l17.357 13.062c0 0 2.953 2.103 1.521 5.669-.181.6-2.208 4.71-6.354 4.804-.806.093-3.43 0-4.981-3.96 0 0-1.371-5.143-5.815-3.604 0 0-8.351 2.928-8.946 3.097-.565.169-5.488 1.032-5.488-4.805 0 0 0-17.81 0-19.235 0-1.428-1.76-9.572-8.589-9.271 0 0-3.938.338-7.365 1.895v8.408c0 0 4.622-.694 4.622 5.312v29.032c0 0 .208 7.244-7.367 7.376-6.354-.075-7.396-6.137-7.396-6.869-.061-4.109.178-92.54.178-92.54L93.339 9.962l.178 63.356c0 0-.924 20.569-6.711 28.508-1.668 2.271-7.545 2.271-8.052-2.76V66.45l-14.762 4.636c0 0 0 10.997 0 13.212s-2.059 28.45-9.604 28.075c-.955.02-2.983-1.033-3.014-5.536l.091-31.96-14.435 5.142c0 0-.149 17.565-.18 18.542-.447 5.631.357 31.078-16.492 31.078 0 0-4.116.169-4.116-4.805V53.745c0 0 .477-8.032 6.71-10.829 0 0 6.354-2.271 7.725-2.74 1.342-.469 6.531 0 6.531 5.668v18.035L55.402 58.211M287.79 6.771c0-2.797 2.236-4.617 4.743-4.617 2.505 0 4.74 1.82 4.74 4.617 0 2.834-2.235 4.636-4.74 4.636C290.026 11.407 287.79 9.605 287.79 6.771M292.533 3.13c-1.97 0-3.521 1.521-3.521 3.642 0 2.139 1.552 3.658 3.521 3.658 1.937 0 3.519-1.52 3.519-3.658C296.052 4.65 294.47 3.13 292.533 3.13zM291.696 9.361h-1.014v-5.18h1.97c1.282 0 1.997.412 1.997 1.538 0 .938-.567 1.313-1.252 1.389l1.252 2.253h-1.133l-1.163-2.215h-.657V9.361zM291.696 6.357h.896c.745 0 1.014-.242 1.014-.731 0-.488-.327-.638-1.072-.638h-.837V6.357z" fill="#6666ff" class="color000 svgShape"></path></svg></g></svg>