<svg id="SvgjsSvg1001" width="288" height="288" xmlns="http://www.w3.org/2000/svg" version="1.1" xmlns:xlink="http://www.w3.org/1999/xlink" xmlns:svgjs="http://svgjs.com/svgjs"><defs id="SvgjsDefs1002"></defs><g id="SvgjsG1008" transform="matrix(1,0,0,1,0,0)"><svg xmlns="http://www.w3.org/2000/svg" width="288" height="288" viewBox="0 0 400 165.778"><path fill-rule="evenodd" d="M94.778 20.206 C 86.823 22.001,85.511 24.081,78.451 46.100 C 67.572 80.032,65.475 85.841,61.244 93.778 C 53.968 107.423,46.881 111.985,41.529 106.466 C 38.008 102.835,36.566 92.739,38.853 87.718 C 43.058 78.483,49.095 72.663,46.373 80.468 C 43.636 88.316,44.768 93.180,50.052 96.276 C 52.260 97.570,53.092 97.466,53.499 95.844 C 53.788 94.692,56.710 89.513,57.591 88.591 C 59.236 86.870,60.183 81.689,59.401 78.696 C 54.047 58.214,24.944 67.636,24.895 89.867 C 24.845 112.734,54.042 122.605,70.641 105.333 C 72.745 103.144,76.444 98.206,76.444 97.586 C 76.444 97.454,77.361 95.693,78.481 93.673 C 79.601 91.653,80.779 89.300,81.100 88.444 C 81.420 87.589,82.122 85.689,82.660 84.222 C 83.198 82.756,83.992 80.756,84.424 79.778 C 84.856 78.800,85.758 76.500,86.427 74.667 C 87.097 72.833,87.946 70.633,88.314 69.778 C 88.683 68.922,89.849 65.922,90.906 63.111 C 91.964 60.300,93.364 56.700,94.018 55.111 C 96.148 49.934,98.672 43.470,101.394 36.222 C 102.863 32.311,104.531 28.309,105.100 27.328 C 106.305 25.253,107.773 20.514,107.343 20.084 C 106.751 19.492,97.551 19.581,94.778 20.206 M104.634 22.170 C 104.768 22.386,104.480 23.067,103.994 23.685 C 103.508 24.302,103.111 24.923,103.111 25.066 C 103.111 25.208,102.128 27.976,100.927 31.218 C 99.726 34.459,97.204 41.311,95.323 46.444 C 88.922 63.917,80.218 85.370,76.660 92.444 C 73.837 98.060,65.878 107.389,64.817 106.328 C 64.394 105.905,64.584 105.380,65.698 103.894 C 74.627 91.984,77.856 85.113,89.249 53.778 C 96.028 35.134,99.617 25.887,100.739 24.174 C 101.801 22.554,104.131 21.355,104.634 22.170 M193.916 31.531 C 190.804 32.944,188.459 37.107,177.750 60.222 C 165.503 86.659,161.705 92.217,151.160 99.140 C 139.050 107.090,134.905 99.514,143.843 85.765 C 147.944 79.454,150.469 77.789,149.138 82.271 C 147.442 87.980,149.876 94.244,153.778 94.214 C 154.823 94.206,158.765 85.590,159.015 82.766 C 159.658 75.515,152.790 69.863,144.889 71.139 C 134.659 72.792,126.425 83.701,125.117 97.333 C 124.720 101.468,122.109 104.611,119.806 103.727 C 118.926 103.389,118.850 99.699,119.697 98.432 C 120.020 97.950,120.745 96.456,121.308 95.111 C 121.872 93.767,123.595 90.067,125.136 86.889 C 132.078 72.583,132.096 71.113,125.333 71.115 C 120.680 71.117,119.222 71.914,117.218 75.554 L 116.437 76.974 114.797 75.534 C 106.067 67.870,91.410 72.391,85.617 84.536 C 76.189 104.300,85.080 117.063,102.130 108.239 L 105.346 106.575 107.174 108.226 C 110.192 110.953,112.437 111.715,117.556 111.748 C 122.246 111.779,122.018 111.848,126.849 108.970 L 129.324 107.496 131.898 109.084 C 136.152 111.710,139.464 112.195,143.980 110.854 C 146.526 110.098,152.469 107.334,152.868 106.721 C 153.002 106.515,153.779 106.004,154.596 105.585 L 156.080 104.825 155.741 105.857 C 154.668 109.119,157.063 110.784,162.919 110.848 C 167.645 110.900,168.593 110.259,170.481 105.730 C 174.172 96.876,174.952 96.217,177.433 99.854 C 181.591 105.953,186.868 109.875,192.034 110.706 C 195.192 111.215,197.456 110.579,204.200 107.288 C 207.687 105.586,208.289 105.418,209.089 105.923 C 212.282 107.940,213.466 108.494,215.814 109.071 C 227.458 111.933,233.943 108.734,236.907 98.667 C 238.762 92.367,240.605 92.052,242.336 97.740 C 244.555 105.029,248.453 108.156,255.891 108.614 C 268.172 109.369,276.805 100.179,278.455 84.596 C 278.782 81.501,279.528 80.565,282.444 79.584 C 283.422 79.255,284.343 78.799,284.491 78.571 C 284.639 78.343,285.382 78.221,286.142 78.300 L 287.525 78.444 285.601 83.111 C 280.846 94.647,277.080 101.933,274.705 104.194 C 272.426 106.363,273.183 107.182,278.889 108.723 C 285.587 110.531,288.599 108.901,291.369 101.968 C 295.351 92.005,299.023 85.483,303.406 80.593 C 310.965 72.160,312.665 74.357,307.055 85.309 C 300.797 97.527,301.870 103.185,311.034 106.288 C 314.164 107.347,330.983 107.645,333.506 106.685 C 334.060 106.475,335.638 106.183,337.014 106.036 C 340.156 105.701,344.570 104.592,346.889 103.554 C 347.867 103.117,350.927 101.813,353.690 100.658 C 356.453 99.502,358.953 98.322,359.245 98.035 C 360.034 97.263,363.889 94.667,364.248 94.667 C 364.931 94.667,370.771 90.021,371.180 89.152 C 371.420 88.641,372.003 87.522,372.475 86.667 C 373.518 84.774,373.601 81.316,372.668 78.669 C 371.534 75.456,366.243 68.789,365.653 69.829 C 365.599 69.923,364.765 71.600,363.798 73.556 C 355.808 89.716,317.407 107.972,316.528 96.027 C 316.370 93.879,317.849 89.190,320.054 84.853 C 326.391 72.382,315.026 62.468,303.122 70.084 L 299.933 72.125 298.656 70.727 C 295.320 67.074,291.287 67.486,282.391 72.388 C 276.534 75.616,276.999 75.575,275.333 73.012 C 270.099 64.959,258.098 66.557,247.084 76.771 C 243.106 80.461,237.254 84.444,235.812 84.444 C 235.448 84.444,232.215 79.515,230.990 77.092 C 229.960 75.057,228.984 72.089,228.245 68.748 C 227.876 67.078,225.755 66.222,221.985 66.222 C 217.109 66.222,215.441 68.041,216.453 72.257 L 217.010 74.579 213.882 79.116 C 203.538 94.117,195.886 102.216,192.052 102.221 C 186.314 102.227,181.830 92.439,185.873 88.731 C 187.431 87.302,195.380 82.195,195.640 82.455 C 195.726 82.540,197.691 81.323,200.007 79.750 C 202.323 78.176,204.387 76.889,204.592 76.889 C 205.424 76.889,208.986 73.948,209.853 72.545 C 211.212 70.346,210.548 69.318,206.458 67.297 C 201.790 64.990,201.482 65.041,194.720 69.266 C 188.485 73.162,186.800 74.060,186.426 73.685 C 186.080 73.339,188.991 66.951,194.843 55.215 C 197.680 49.527,200.002 44.727,200.005 44.548 C 200.007 44.369,201.311 41.643,202.903 38.490 C 204.494 35.338,205.742 32.715,205.676 32.662 C 203.456 30.872,196.783 30.230,193.916 31.531 M203.111 33.946 C 203.111 35.274,181.931 76.780,180.414 78.426 C 176.618 82.544,177.321 80.148,183.440 68.119 C 186.643 61.820,190.851 53.267,192.790 49.111 C 199.941 33.790,199.948 33.778,201.628 33.778 C 202.444 33.778,203.111 33.854,203.111 33.946 M351.778 53.961 C 345.806 56.615,347.459 65.487,353.924 65.479 C 360.766 65.471,362.727 56.566,356.441 54.051 C 354.299 53.193,353.538 53.179,351.778 53.961 M356.459 54.896 C 361.043 57.267,359.273 64.444,354.104 64.444 C 351.637 64.444,349.978 63.242,349.361 61.007 C 348.109 56.470,352.384 52.789,356.459 54.896 M351.852 56.296 C 351.482 56.666,351.460 61.457,351.824 62.406 C 352.231 63.465,352.889 62.786,352.889 61.307 C 352.889 59.510,353.918 59.625,355.111 61.556 C 355.640 62.411,356.272 63.111,356.517 63.111 C 356.761 63.111,356.552 62.449,356.052 61.640 C 355.150 60.180,355.150 60.165,356.016 59.423 C 357.070 58.520,357.127 57.635,356.190 56.698 C 355.499 56.007,352.426 55.722,351.852 56.296 M355.778 58.000 C 355.778 58.678,355.435 58.922,354.333 59.028 C 353.035 59.153,352.889 59.049,352.889 58.000 C 352.889 56.951,353.035 56.847,354.333 56.972 C 355.435 57.078,355.778 57.322,355.778 58.000 M226.893 70.111 C 227.579 74.408,231.248 82.763,232.896 83.782 C 233.494 84.152,233.451 86.222,232.845 86.222 C 229.551 86.222,222.790 70.491,225.379 68.851 C 226.408 68.200,226.615 68.371,226.893 70.111 M207.554 70.804 C 207.554 71.095,202.482 74.515,196.284 78.404 C 182.143 87.277,181.778 87.577,181.778 90.308 C 181.778 92.014,181.048 91.523,180.408 89.387 C 179.501 86.358,180.051 85.856,193.198 77.718 C 206.150 69.700,207.559 69.022,207.554 70.804 M273.521 72.969 C 275.277 75.021,275.476 75.765,274.381 76.185 C 273.479 76.531,273.634 76.718,272.288 73.667 C 270.952 70.640,271.340 70.421,273.521 72.969 M45.333 73.756 C 45.333 73.988,45.054 74.338,44.713 74.533 C 40.233 77.099,36.001 86.987,35.668 95.667 C 35.444 101.500,35.140 102.390,34.226 99.889 C 32.679 95.658,33.278 87.289,35.459 82.669 C 37.559 78.220,45.333 71.202,45.333 73.756 M128.672 74.232 C 128.827 74.481,126.771 79.031,124.103 84.343 C 119.297 93.914,117.629 98.020,117.067 101.667 C 116.732 103.834,116.359 104.030,115.627 102.424 C 114.410 99.754,115.687 95.722,121.602 83.556 C 126.486 73.509,127.444 72.245,128.672 74.232 M266.234 75.667 C 267.207 77.809,267.348 79.111,266.607 79.111 C 265.156 79.111,262.498 77.925,261.713 76.928 L 260.819 75.792 261.990 74.785 C 263.876 73.163,265.225 73.443,266.234 75.667 M304.889 75.079 C 304.889 75.305,304.175 76.079,303.302 76.799 C 299.744 79.732,295.448 86.964,290.695 98.023 C 287.717 104.950,285.418 107.713,284.230 105.790 C 283.622 104.806,293.610 85.622,297.274 80.735 C 299.816 77.346,304.889 73.577,304.889 75.079 M105.672 78.333 C 100.428 84.793,95.556 96.023,95.556 101.649 C 95.556 103.893,94.954 104.130,94.266 102.156 C 92.303 96.525,96.029 85.899,102.224 79.464 C 106.350 75.178,108.916 74.336,105.672 78.333 M319.550 79.000 C 319.546 80.449,319.048 82.227,317.962 84.667 C 314.601 92.218,314.116 93.818,314.357 96.556 C 314.597 99.278,314.254 99.719,313.136 98.123 C 311.564 95.879,312.573 90.265,315.565 84.607 C 316.745 82.374,317.958 79.724,318.259 78.718 C 318.990 76.279,319.557 76.403,319.550 79.000 M147.111 77.566 C 147.111 77.694,146.018 79.234,144.681 80.988 C 140.763 86.131,137.993 92.116,137.109 97.346 C 136.808 99.129,136.732 99.217,136.169 98.446 C 134.055 95.555,137.671 84.513,142.075 80.415 C 144.658 78.010,147.111 76.623,147.111 77.566 M111.052 79.000 C 114.857 86.111,105.571 103.051,97.838 103.107 C 96.550 103.116,97.816 97.749,101.035 89.556 C 103.453 83.399,109.817 76.693,111.052 79.000 M157.028 80.361 C 157.355 81.998,156.808 84.292,155.632 86.214 C 155.111 87.065,154.447 88.821,154.157 90.116 C 153.520 92.964,152.717 92.931,152.530 90.050 C 152.421 88.364,152.707 87.313,153.975 84.747 C 154.844 82.988,155.556 80.999,155.556 80.329 C 155.556 78.708,156.702 78.732,157.028 80.361 M220.444 81.790 C 220.444 84.670,215.726 92.444,213.979 92.444 C 212.578 92.444,212.587 92.400,214.516 89.893 C 215.411 88.730,216.920 86.128,217.870 84.111 C 219.693 80.244,220.444 79.566,220.444 81.790 M262.000 82.399 C 263.467 83.024,265.041 83.539,265.499 83.545 C 269.199 83.592,260.616 101.199,255.951 103.131 C 250.274 105.483,251.033 89.826,256.964 82.235 C 258.107 80.772,258.184 80.775,262.000 82.399 M371.539 82.182 C 372.639 84.839,364.795 92.067,356.049 96.456 C 349.441 99.772,347.366 98.843,353.556 95.341 C 360.521 91.399,364.687 87.912,368.301 83.000 C 370.097 80.558,370.793 80.382,371.539 82.182 M56.679 82.261 C 57.145 83.729,56.542 85.922,55.057 88.164 C 54.304 89.302,53.348 91.181,52.933 92.339 C 52.018 94.898,51.313 94.724,51.390 91.956 C 51.432 90.416,51.892 89.172,53.252 86.917 C 54.245 85.270,55.185 83.340,55.342 82.628 C 55.675 81.111,56.263 80.949,56.679 82.261 M276.463 86.081 C 275.216 93.241,268.925 103.556,265.804 103.556 C 265.109 103.556,265.232 102.860,266.047 102.183 C 269.204 99.563,274.222 88.616,274.222 84.349 C 274.222 83.482,274.569 82.956,275.444 82.494 C 277.017 81.663,277.151 82.132,276.463 86.081 M224.147 85.667 C 225.784 88.922,225.562 89.619,222.562 90.632 C 219.868 91.542,218.222 91.797,218.222 91.304 C 218.222 90.925,219.186 89.201,219.737 88.596 C 220.004 88.302,220.712 87.248,221.312 86.253 C 222.589 84.133,223.302 83.985,224.147 85.667 M242.667 88.145 C 242.667 88.991,240.969 90.371,238.746 91.333 C 236.437 92.332,235.556 93.472,235.556 95.461 C 235.556 99.992,229.694 108.000,226.377 108.000 C 225.562 108.000,225.823 107.581,227.994 105.411 C 230.761 102.644,231.958 99.909,232.658 94.762 C 233.035 91.981,234.327 90.721,238.774 88.795 C 241.928 87.428,242.667 87.305,242.667 88.145 M173.333 92.377 C 173.333 94.876,166.639 109.199,165.732 108.639 C 164.506 107.881,165.636 103.819,169.039 96.745 C 172.537 89.475,173.333 88.665,173.333 92.377 M222.222 96.900 C 222.222 97.573,220.202 98.221,218.082 98.228 C 213.786 98.242,212.607 99.861,215.055 102.386 C 217.448 104.856,215.819 105.429,213.127 103.065 C 210.612 100.857,211.080 97.475,214.000 96.764 C 215.765 96.334,222.222 96.441,222.222 96.900 M222.393 100.196 C 221.767 101.827,218.465 102.784,216.893 101.789 C 215.762 101.075,217.106 100.258,219.907 99.958 C 221.303 99.809,222.488 99.657,222.542 99.621 C 222.595 99.585,222.528 99.844,222.393 100.196 M206.566 102.637 C 206.244 104.310,200.444 107.340,200.444 105.835 C 200.444 104.599,205.548 100.418,206.113 101.191 C 206.432 101.626,206.636 102.277,206.566 102.637 M126.334 106.793 C 124.804 108.405,121.778 110.033,121.778 109.245 C 121.778 107.926,126.406 103.931,126.998 104.740 C 127.472 105.388,127.370 105.702,126.334 106.793 M302.983 115.831 C 302.362 116.452,302.681 118.198,303.494 118.634 C 304.663 119.260,305.907 118.266,305.709 116.864 C 305.556 115.782,303.726 115.088,302.983 115.831 M315.348 118.907 C 315.052 121.669,314.971 121.828,313.740 122.074 C 312.054 122.411,312.076 123.404,313.778 123.778 L 315.111 124.071 315.111 130.924 L 315.111 137.778 316.222 137.778 L 317.333 137.778 317.338 132.556 C 317.345 125.076,317.575 124.000,319.169 124.000 C 320.233 124.000,320.444 123.816,320.444 122.889 C 320.444 121.915,320.252 121.778,318.889 121.778 L 317.333 121.778 317.333 118.889 C 317.333 114.577,315.810 114.591,315.348 118.907 M261.103 122.397 C 255.187 124.975,254.865 134.328,260.598 137.049 C 262.979 138.179,266.435 137.998,268.786 136.620 L 270.760 135.463 270.440 137.398 C 269.587 142.541,262.998 144.127,259.376 140.061 C 257.574 138.039,256.200 139.117,257.769 141.321 C 261.176 146.105,270.878 144.542,272.416 138.962 C 273.365 135.518,272.860 122.000,271.782 122.000 C 271.154 122.000,270.832 122.374,270.671 123.292 C 270.463 124.479,270.393 124.522,269.810 123.818 C 268.175 121.845,263.952 121.156,261.103 122.397 M303.423 122.059 C 303.251 122.230,303.111 125.837,303.111 130.074 L 303.111 137.778 304.232 137.778 L 305.354 137.778 305.232 129.895 C 305.111 122.021,304.802 120.680,303.423 122.059 M331.587 122.556 C 325.645 125.586,325.652 134.503,331.599 137.578 C 333.648 138.637,337.376 138.411,339.291 137.111 C 341.280 135.762,341.238 135.764,341.414 137.000 C 341.505 137.646,341.913 138.051,342.566 138.143 L 343.576 138.287 343.455 130.143 C 343.339 122.350,343.295 122.000,342.449 122.000 C 341.821 122.000,341.499 122.374,341.338 123.292 C 341.129 124.479,341.060 124.522,340.477 123.818 C 338.752 121.737,334.404 121.120,331.587 122.556 M354.990 122.667 C 353.638 123.730,353.333 123.771,353.333 122.889 C 353.333 122.519,352.938 122.222,352.444 122.222 C 351.589 122.222,351.556 122.519,351.556 130.000 L 351.556 137.778 352.667 137.778 L 353.778 137.778 353.788 132.778 C 353.798 127.300,354.721 124.067,356.312 123.932 C 357.775 123.808,357.996 123.757,358.556 123.406 C 358.861 123.215,359.111 122.770,359.111 122.418 C 359.111 121.448,356.326 121.616,354.990 122.667 M365.744 123.077 C 363.327 125.494,364.196 128.076,368.290 130.644 C 370.740 132.179,371.111 132.589,371.111 133.751 C 371.111 136.261,367.846 137.193,365.730 135.287 C 365.105 134.724,364.941 134.735,364.412 135.373 C 362.715 137.417,369.090 139.299,371.392 137.435 C 374.577 134.855,373.887 131.670,369.554 128.954 C 366.473 127.022,365.801 125.755,367.144 124.411 C 368.185 123.371,369.250 123.324,370.588 124.262 C 371.718 125.053,372.889 124.820,372.889 123.803 C 372.889 121.666,367.683 121.137,365.744 123.077 M280.891 127.000 C 280.896 135.456,282.304 137.863,287.392 138.117 C 290.997 138.297,293.004 137.340,293.994 134.971 C 295.507 131.350,295.365 122.222,293.796 122.222 C 293.079 122.222,292.977 122.790,292.813 127.714 C 292.602 134.064,292.127 135.216,289.379 136.039 C 285.002 137.350,283.127 134.776,283.118 127.444 L 283.111 122.222 282.000 122.222 L 280.889 122.222 280.891 127.000 M267.367 124.398 C 269.735 125.474,270.852 127.693,270.559 130.744 C 269.862 138.000,258.667 137.511,258.667 130.224 C 258.667 125.123,262.828 122.336,267.367 124.398 M337.760 124.267 C 344.229 126.855,341.690 137.004,334.750 136.298 C 328.691 135.681,327.364 127.114,332.898 124.334 C 334.807 123.375,335.506 123.365,337.760 124.267 " fill="#6666ff" class="color000 svgShape"></path></svg></g></svg>