<svg id="SvgjsSvg1001" width="288" height="288" xmlns="http://www.w3.org/2000/svg" version="1.1" xmlns:xlink="http://www.w3.org/1999/xlink" xmlns:svgjs="http://svgjs.com/svgjs"><defs id="SvgjsDefs1002"></defs><g id="SvgjsG1008" transform="matrix(1,0,0,1,0,0)"><svg xmlns="http://www.w3.org/2000/svg" width="288" height="288" viewBox="0 0 400 178.667"><path fill-rule="evenodd" d="M162.000 0.829 C 48.347 12.376,-20.514 60.118,4.667 109.909 C 36.106 172.076,203.990 199.778,319.727 161.898 C 426.934 126.809,427.169 52.777,320.186 17.335 C 303.199 11.707,281.714 6.689,260.000 3.277 C 246.546 1.162,176.048 -0.599,162.000 0.829 M235.333 6.726 C 382.649 19.299,444.932 95.130,348.059 143.975 C 230.851 203.074,6.014 167.151,6.061 89.333 C 6.092 37.324,118.653 -3.231,235.333 6.726 M106.223 22.020 C 74.358 30.085,50.892 54.343,59.275 70.553 C 61.991 75.806,77.402 82.082,100.655 87.407 C 114.025 90.468,116.625 93.776,110.317 99.702 C 101.623 107.870,86.540 110.219,60.554 107.453 L 49.774 106.305 43.554 113.942 C 32.530 127.474,35.515 130.667,59.186 130.667 C 109.585 130.667,143.856 108.126,129.429 84.466 C 125.492 78.011,98.242 66.667,86.670 66.667 C 72.759 66.667,87.818 52.336,107.134 47.193 C 118.630 44.132,120.480 44.525,119.617 49.843 C 117.353 63.795,139.844 57.349,147.840 41.754 C 155.562 26.695,131.963 15.505,106.223 22.020 M303.670 50.683 C 298.740 55.613,298.378 56.465,299.058 61.532 C 299.851 67.444,288.679 81.369,277.664 88.199 C 268.869 93.652,270.551 89.632,279.914 82.821 C 287.385 77.388,289.436 75.202,288.919 73.226 C 288.526 71.725,288.929 70.667,289.892 70.667 C 295.079 70.667,298.950 61.668,295.128 58.497 C 283.386 48.751,247.603 66.079,258.000 76.476 C 260.839 79.315,260.739 79.529,253.208 86.787 C 242.022 97.569,240.298 96.098,248.063 82.396 C 254.557 70.935,254.544 67.628,248.000 66.601 C 241.309 65.551,240.614 66.008,234.001 75.815 C 222.131 93.419,215.188 98.736,223.857 83.583 C 228.587 75.316,228.976 72.368,225.667 69.856 C 221.232 66.490,218.964 67.892,211.414 78.667 C 202.443 91.470,196.877 94.015,202.667 82.667 C 206.108 75.921,206.026 74.155,202.175 72.094 C 196.866 69.252,194.538 70.873,186.038 83.329 C 178.732 94.035,173.333 98.876,173.333 94.720 C 173.333 92.682,179.818 80.027,182.847 76.154 C 187.599 70.076,183.411 62.244,177.396 65.961 C 176.614 66.444,174.399 65.601,172.474 64.087 C 166.141 59.105,156.850 62.748,146.487 74.277 C 127.921 94.929,129.190 124.733,148.202 114.559 C 152.021 112.515,152.097 113.024,149.422 122.686 C 141.423 151.570,141.512 164.000,149.718 164.000 C 159.005 164.000,162.580 156.668,165.324 132.000 C 167.358 113.706,167.340 113.754,172.577 112.771 C 175.044 112.309,178.599 110.721,180.477 109.244 L 183.892 106.558 186.633 109.299 C 189.682 112.349,193.695 112.012,200.667 108.122 C 204.437 106.019,204.801 106.028,207.000 108.279 C 210.123 111.475,214.323 111.287,221.548 107.629 C 227.429 104.652,227.626 104.640,231.441 107.024 C 236.370 110.104,242.571 109.300,249.562 104.674 C 254.358 101.500,254.970 101.395,257.672 103.287 C 265.693 108.905,274.685 105.714,290.665 91.576 C 303.582 80.148,303.219 80.252,301.364 88.531 C 297.101 107.550,315.133 111.193,343.333 97.010 C 360.830 88.210,365.502 82.979,360.174 78.157 C 357.808 76.016,356.844 76.313,341.325 83.950 C 324.010 92.472,321.316 93.192,318.672 90.007 C 316.498 87.387,319.088 83.352,327.221 76.687 C 336.619 68.986,336.832 63.822,327.862 61.134 C 322.668 59.578,321.491 58.217,324.000 56.667 C 326.403 55.182,325.409 49.538,322.370 47.409 C 316.737 43.464,309.648 44.705,303.670 50.683 M246.667 49.333 C 243.432 52.568,243.116 60.259,246.095 63.238 C 251.137 68.280,261.333 62.723,261.333 54.934 C 261.333 47.405,252.115 43.885,246.667 49.333 M334.667 59.327 C 334.667 60.430,335.164 61.333,335.773 61.333 C 336.381 61.333,336.831 62.623,336.773 64.198 C 336.612 68.547,339.721 68.732,340.371 64.412 L 340.934 60.667 341.134 64.333 C 341.504 71.131,350.667 69.696,350.667 62.841 L 350.667 57.682 342.667 57.501 C 336.353 57.358,334.667 57.743,334.667 59.327 M283.000 70.274 C 281.350 70.592,278.650 70.592,277.000 70.274 C 275.350 69.957,276.700 69.696,280.000 69.696 C 283.300 69.696,284.650 69.957,283.000 70.274 M159.608 86.940 C 153.187 97.812,145.516 103.429,150.541 93.580 C 153.528 87.725,161.034 79.256,162.201 80.423 C 162.635 80.858,161.469 83.790,159.608 86.940 M225.479 114.682 C 209.439 120.451,204.004 125.767,210.558 129.275 C 214.262 131.257,220.000 129.663,220.000 126.653 C 220.000 125.254,221.523 123.710,223.667 122.933 C 225.683 122.203,228.383 121.181,229.667 120.660 C 231.313 119.993,232.000 120.345,232.000 121.857 C 232.000 125.373,227.311 128.990,221.474 129.976 C 214.476 131.159,214.654 134.801,221.779 136.190 C 223.884 136.600,223.266 138.134,217.346 147.193 C 210.157 158.197,211.281 164.448,219.466 158.980 C 221.420 157.674,233.333 137.164,233.333 135.107 C 233.333 134.218,233.895 133.144,234.581 132.720 C 235.812 131.959,234.398 138.532,232.760 141.182 C 230.186 145.348,237.277 147.477,241.820 143.903 C 244.732 141.612,245.333 141.498,245.333 143.237 C 245.333 145.920,246.509 145.889,249.562 143.127 C 251.831 141.073,252.000 141.073,252.000 143.127 C 252.000 145.565,255.344 146.140,256.707 143.935 C 257.298 142.978,258.159 143.025,259.435 144.084 C 260.467 144.941,262.349 145.196,263.650 144.656 C 264.942 144.119,269.000 143.599,272.667 143.499 C 276.502 143.395,280.685 142.364,282.517 141.071 C 285.553 138.929,285.808 138.958,288.019 141.687 L 290.336 144.550 298.640 141.275 C 303.207 139.474,306.924 137.400,306.900 136.667 C 306.876 135.933,307.809 134.281,308.973 132.995 C 313.637 127.841,305.195 120.672,300.267 125.600 C 297.969 127.898,298.296 132.993,300.832 134.412 C 302.612 135.409,302.222 135.894,298.633 137.145 C 292.190 139.391,291.201 139.023,294.434 135.581 C 297.787 132.012,298.190 129.333,295.375 129.333 C 294.264 129.333,293.721 128.542,294.118 127.505 C 295.127 124.877,290.673 123.597,288.141 125.787 C 286.963 126.806,283.748 127.983,280.996 128.403 L 275.991 129.167 279.329 124.791 C 283.079 119.874,283.669 116.000,280.667 116.000 C 278.121 116.000,274.075 120.032,271.370 125.262 C 270.212 127.501,268.352 129.333,267.235 129.333 C 266.119 129.333,263.651 130.983,261.751 133.000 C 258.841 136.087,258.543 136.193,259.861 133.667 C 261.511 130.507,255.942 128.858,254.036 131.942 C 253.603 132.643,252.337 132.867,251.223 132.440 C 250.096 132.007,247.824 132.953,246.103 134.570 C 243.530 136.987,242.878 137.140,242.238 135.474 C 241.747 134.193,242.089 133.707,243.188 134.129 C 248.418 136.136,248.020 130.668,242.770 128.393 C 238.830 126.686,237.536 125.458,238.153 124.011 C 242.744 113.238,238.394 110.036,225.479 114.682 M192.253 139.667 C 192.612 144.008,193.150 144.722,196.333 145.089 C 198.350 145.321,200.000 146.071,200.000 146.755 C 200.000 147.440,201.192 148.000,202.649 148.000 C 204.766 148.000,209.333 141.163,209.333 137.994 C 209.333 137.804,206.795 137.613,203.693 137.570 C 200.591 137.527,197.841 136.856,197.582 136.079 C 196.182 131.879,191.850 134.796,192.253 139.667 " fill="#6666ff" class="color000 svgShape"></path></svg></g></svg>